<svg width="250" height="92" viewBox="0 0 250 92" fill="none" xmlns="http://www.w3.org/2000/svg">
<path d="M52.0503 40.4496C52.0037 47.9295 48.1122 54.6171 41.6343 58.3454H41.5644C39.0944 59.8134 36.6011 61.2349 34.1544 62.633L28.7484 65.7321L22.8297 69.1342L16.5615 65.5224L12.437 63.1456L23.1559 56.8308L48.7181 41.7778C49.2773 41.4515 49.6036 40.869 49.6036 40.2165C49.6036 39.5641 49.254 39.0048 48.6948 38.6786C43.8247 35.8824 38.5585 32.8298 33.2689 29.8006L23.1326 23.9518C20.9189 22.6702 18.7518 21.4352 16.6547 20.2235C15.0468 19.2914 13.5089 18.406 12.0409 17.5671L22.8064 11.229L34.5039 18.1263L41.7974 22.4139C48.2288 26.2121 52.0503 32.9463 52.027 40.403L52.0503 40.4496Z" fill="#ED1C24"/>
<path d="M22.5268 80.7386L19.5209 91.4807C13.4391 91.1545 7.84661 88.1253 4.1183 83.1386C0.343395 78.1054 -0.914908 71.6741 0.669621 65.5457L2.79009 57.3667L6.19217 44.2245L18.2859 41.0787C17.5169 43.9914 16.6547 47.1372 15.7693 50.4461L14.9537 53.4287C13.5556 58.625 12.0876 64.0777 10.6428 69.4371C9.50104 73.7247 8.35925 77.9423 7.28736 81.8803C7.14755 82.4163 7.24076 82.9988 7.59029 83.4416C7.91651 83.8843 8.45246 84.1406 9.0117 84.1406C9.15151 84.1406 9.29133 84.1406 9.45444 84.094L22.5268 80.7152V80.7386Z" fill="#242E55"/>
<path d="M91.6401 17.1011C90.3119 15.7262 88.308 15.0505 85.6282 15.0505H76.7036V40.1699H80.362V31.1288H85.6049C88.2847 31.1288 90.2886 30.453 91.6168 29.0782C92.9683 27.7267 93.6441 25.7228 93.6441 23.113C93.6441 20.5031 92.9683 18.4992 91.6168 17.1244L91.6401 17.1011ZM88.8206 26.8413C88.0749 27.6102 86.9099 27.983 85.302 27.983H80.3853V18.1962H85.302C86.9099 18.1962 88.0749 18.5924 88.8206 19.338C89.5663 20.107 89.9391 21.342 89.9391 23.0896C89.9391 24.8373 89.5663 26.0723 88.8206 26.818V26.8413Z" fill="#242E55"/>
<path d="M112.006 30.9656C111.61 30.4297 111.354 30.0336 111.237 29.7772C111.121 29.5442 111.074 29.3345 111.074 29.1714C111.074 29.0083 111.121 28.8685 111.214 28.7753C111.307 28.6588 111.517 28.4956 111.843 28.3325L112.612 27.8898C114.033 27.0742 115.059 26.2121 115.641 25.28C116.224 24.3479 116.527 23.0896 116.527 21.4818C116.527 19.3613 116.037 17.7535 115.082 16.6816C114.127 15.6097 112.426 15.0737 109.979 15.0737H99.7959V40.1932H103.454V18.1962H109.373C110.655 18.1962 111.563 18.5224 112.099 19.1749C112.659 19.8506 112.938 20.9225 112.938 22.4138C112.938 24.045 112.682 25.2101 112.146 25.8858C111.633 26.5849 110.678 26.9111 109.28 26.9111H106.74V28.2393C106.74 28.7054 106.786 29.1015 106.88 29.3811C106.95 29.684 107.113 29.987 107.346 30.3365L114.01 40.1466H118.368L111.983 30.9423L112.006 30.9656Z" fill="#242E55"/>
<path d="M140.364 18.0098C138.547 15.8194 135.891 14.7242 132.325 14.7242C128.76 14.7242 126.15 15.8194 124.309 18.0098C122.515 20.2235 121.606 23.4158 121.606 27.6102C121.606 31.8045 122.515 34.9736 124.309 37.2106C126.127 39.4242 128.783 40.5194 132.325 40.5194C135.867 40.5194 138.524 39.4242 140.364 37.2106C142.159 34.9969 143.068 31.8278 143.068 27.6102C143.068 23.3925 142.159 20.2468 140.364 18.0098ZM138.547 33.2492C138.081 34.6474 137.359 35.6726 136.357 36.3251C135.355 36.9775 134.026 37.3038 132.349 37.3038C130.671 37.3038 129.343 36.9775 128.364 36.3251C127.362 35.6726 126.64 34.6474 126.174 33.2492C125.708 31.8278 125.475 29.9637 125.475 27.6102C125.475 25.2567 125.708 23.3925 126.174 21.9944C126.64 20.5963 127.362 19.571 128.364 18.8953C129.343 18.2428 130.694 17.9166 132.349 17.9166C134.003 17.9166 135.355 18.2428 136.357 18.8953C137.359 19.571 138.081 20.5963 138.547 21.9944C139.013 23.3925 139.246 25.2567 139.246 27.6102C139.246 29.9637 139.013 31.8278 138.547 33.2492Z" fill="#242E55"/>
<path d="M164.901 18.1962V15.0505H149.545V40.1699H153.204V29.218H163.923V26.049H153.204V18.1962H164.901Z" fill="#242E55"/>
<path d="M80.129 81.3211C79.8261 81.0182 79.36 80.8551 78.7542 80.8551H76.7269V86.564H77.5658V84.5135H78.7542C79.36 84.5135 79.8261 84.3504 80.129 84.0474C80.4319 83.7445 80.595 83.2785 80.595 82.6726C80.595 82.0668 80.4319 81.624 80.129 81.3211ZM79.4766 83.5348C79.3134 83.6979 79.0338 83.7911 78.6843 83.7911H77.5658V81.5774H78.6843C79.0338 81.5774 79.3134 81.6473 79.4766 81.8337C79.6397 81.9969 79.7329 82.2765 79.7329 82.6726C79.7329 83.0688 79.6397 83.3717 79.4766 83.5348Z" fill="#242E55"/>
<path d="M83.3448 82.393C83.1817 82.393 83.0419 82.4396 82.972 82.5095C82.9021 82.5794 82.8555 82.6726 82.7856 82.7891C82.7856 82.859 82.7623 82.9056 82.7156 82.9522C82.7156 82.9755 82.669 82.9989 82.6224 82.9989C82.5758 82.9989 82.5292 82.9756 82.5059 82.9289C82.4826 82.859 82.4826 82.7891 82.4593 82.6959C82.436 82.6027 82.4127 82.5095 82.4127 82.4629C82.4127 82.4163 82.3428 82.393 82.2962 82.393H81.7836V86.564H82.5525V83.861C82.5525 83.5814 82.5991 83.3717 82.7156 83.2552C82.8089 83.1154 82.9953 83.0455 83.2516 83.0455H84.0905V82.393H83.3448Z" fill="#242E55"/>
<path d="M88.0751 82.9057C87.7488 82.5328 87.2595 82.3464 86.6536 82.3464C86.0478 82.3464 85.5585 82.5328 85.2089 82.9057C84.8594 83.2785 84.6963 83.8144 84.6963 84.4902C84.6963 85.1659 84.8594 85.6786 85.2089 86.0514C85.5585 86.4243 86.0478 86.6107 86.6536 86.6107C87.2595 86.6107 87.7488 86.4243 88.0751 86.0514C88.4246 85.6786 88.611 85.1659 88.611 84.4902C88.611 83.8144 88.4246 83.2785 88.0751 82.9057ZM87.8187 84.4902C87.8187 85.0028 87.7255 85.3757 87.5391 85.6087C87.3527 85.8417 87.0498 85.9582 86.6536 85.9582C86.2342 85.9582 85.9546 85.8417 85.7682 85.6087C85.5818 85.3757 85.4886 85.0028 85.4886 84.4902C85.4886 83.9542 85.5818 83.5814 85.7682 83.3484C85.9546 83.1387 86.2342 83.0222 86.6536 83.0222C87.0498 83.0222 87.3527 83.1387 87.5391 83.3484C87.7255 83.5814 87.8187 83.9543 87.8187 84.4669V84.4902Z" fill="#242E55"/>
<path d="M91.0111 81.624C91.0111 81.624 91.2208 81.4842 91.4073 81.4842H92.316V80.8551H91.384C90.5451 80.8551 90.1257 81.2512 90.1257 82.0435V82.393H89.3567V83.0454H90.1257V86.564H90.8946V83.0454H92.316V82.393H91.5238C91.4073 82.393 91.3374 82.4163 91.2908 82.4629C91.2441 82.5328 91.1975 82.6027 91.1742 82.6959C91.1509 82.7658 91.1276 82.8124 91.1043 82.8357C91.081 82.859 91.0577 82.8823 91.0111 82.8823C90.9412 82.8823 90.8946 82.8357 90.8946 82.7192V82.0435C90.8946 81.8337 90.9412 81.6939 91.0111 81.624Z" fill="#242E55"/>
<path d="M94.1569 84.4902C94.1569 84.4902 94.2268 84.5368 94.2501 84.5601C94.2967 84.6067 94.3433 84.63 94.3666 84.6533C94.4132 84.6766 94.4831 84.6999 94.553 84.6999H96.7667C96.79 84.5834 96.79 84.397 96.79 84.164C96.79 83.628 96.6502 83.1853 96.3705 82.8591C96.0909 82.5328 95.6715 82.3464 95.0656 82.3464C94.4598 82.3464 93.9704 82.5328 93.6209 82.929C93.2714 83.3018 93.1083 83.8144 93.1083 84.5135C93.1083 85.2126 93.2714 85.7019 93.5976 86.0747C93.9471 86.4243 94.4365 86.6107 95.0889 86.6107C95.5783 86.6107 95.9511 86.5175 96.254 86.3544C96.5337 86.1679 96.7201 85.9582 96.7667 85.6553L96.021 85.4689C95.9511 85.7951 95.6249 85.9815 95.0889 85.9815C94.6695 85.9815 94.3666 85.865 94.1569 85.6553C93.9471 85.4456 93.8539 85.1193 93.8539 84.6766C93.8539 84.5368 93.9238 84.4669 94.0404 84.4669C94.087 84.4669 94.1336 84.4669 94.1569 84.4902ZM93.8539 84.0941C93.8539 83.7678 93.9471 83.4882 94.1569 83.2785C94.3666 83.0688 94.6462 82.9756 95.0423 82.9756C95.3919 82.9756 95.6482 83.0688 95.8346 83.2319C95.9977 83.4183 96.0909 83.6979 96.0909 84.0708V84.1174H94.553C94.553 84.1174 94.4132 84.1407 94.3899 84.164C94.3433 84.164 94.2967 84.2106 94.2501 84.2339C94.2501 84.2805 94.2035 84.3038 94.1569 84.3271C94.1336 84.3271 94.087 84.3504 94.0404 84.3504C93.9238 84.3504 93.8539 84.2572 93.8539 84.0941Z" fill="#242E55"/>
<path d="M100.821 84.6067C100.658 84.4203 100.378 84.2805 100.029 84.2106L99.0035 84.0009C98.8171 83.9776 98.7006 83.9076 98.6307 83.8377C98.5375 83.7678 98.5142 83.6746 98.5142 83.5348C98.5142 83.162 98.7938 82.9989 99.3763 82.9989C99.7026 82.9989 99.9356 83.0455 100.075 83.1387C100.239 83.2319 100.332 83.3717 100.355 83.5581L101.054 83.395C101.007 83.0688 100.844 82.8125 100.565 82.626C100.262 82.4396 99.889 82.3464 99.3996 82.3464C98.9103 82.3464 98.4909 82.4629 98.2112 82.6726C97.9316 82.8824 97.7918 83.1853 97.7918 83.5814C97.7918 83.861 97.885 84.0941 98.0481 84.2805C98.2112 84.4436 98.4909 84.5601 98.8404 84.63L99.8657 84.8397C100.052 84.8397 100.192 84.9329 100.262 85.0261C100.355 85.1194 100.402 85.2359 100.402 85.399C100.402 85.6087 100.332 85.7485 100.192 85.8417C100.052 85.9349 99.8191 85.9815 99.4928 85.9815C99.1666 85.9815 98.9103 85.9116 98.7239 85.8184C98.5608 85.7019 98.4443 85.5388 98.3977 85.3291L97.6753 85.5155C97.6986 85.8417 97.885 86.098 98.2112 86.3077C98.5142 86.4942 98.9569 86.6107 99.4695 86.6107C100.029 86.6107 100.425 86.4942 100.705 86.2611C100.961 86.0281 101.101 85.7252 101.101 85.3524C101.101 85.0494 101.007 84.7931 100.821 84.6067Z" fill="#242E55"/>
<path d="M105.039 84.6067C104.852 84.4203 104.596 84.2805 104.247 84.2106L103.221 84.0009C103.035 83.9776 102.895 83.9076 102.825 83.8377C102.755 83.7678 102.709 83.6746 102.709 83.5348C102.709 83.162 103.012 82.9989 103.594 82.9989C103.897 82.9989 104.13 83.0455 104.293 83.1387C104.433 83.2319 104.526 83.3717 104.573 83.5581L105.249 83.395C105.202 83.0688 105.039 82.8125 104.759 82.626C104.48 82.4396 104.083 82.3464 103.594 82.3464C103.105 82.3464 102.685 82.4629 102.429 82.6726C102.149 82.8824 102.01 83.1853 102.01 83.5814C102.01 83.861 102.079 84.0941 102.266 84.2805C102.429 84.4436 102.685 84.5601 103.058 84.63L104.083 84.8397C104.247 84.8397 104.386 84.9329 104.48 85.0261C104.549 85.1194 104.596 85.2359 104.596 85.399C104.596 85.6087 104.526 85.7485 104.386 85.8417C104.247 85.9349 104.014 85.9815 103.711 85.9815C103.361 85.9815 103.105 85.9116 102.942 85.8184C102.755 85.7019 102.639 85.5388 102.615 85.3291L101.87 85.5155C101.916 85.8417 102.103 86.098 102.406 86.3077C102.732 86.4942 103.151 86.6107 103.664 86.6107C104.223 86.6107 104.643 86.4942 104.899 86.2611C105.179 86.0281 105.295 85.7252 105.295 85.3524C105.295 85.0494 105.225 84.7931 105.039 84.6067Z" fill="#242E55"/>
<path d="M106.53 82.5561V86.564H107.299V82.5561H106.53ZM106.437 80.8551V81.7638H107.392V80.8551H106.437Z" fill="#242E55"/>
<path d="M112.006 82.9057C111.657 82.5328 111.167 82.3464 110.561 82.3464C109.956 82.3464 109.489 82.5328 109.14 82.9057C108.79 83.2785 108.604 83.8144 108.604 84.4902C108.604 85.1659 108.79 85.6786 109.14 86.0514C109.489 86.4243 109.956 86.6107 110.561 86.6107C111.167 86.6107 111.657 86.4243 112.006 86.0514C112.356 85.6786 112.519 85.1659 112.519 84.4902C112.519 83.8144 112.356 83.2785 112.006 82.9057ZM111.726 84.4902C111.726 85.0028 111.633 85.3757 111.447 85.6087C111.284 85.8417 110.981 85.9582 110.561 85.9582C110.165 85.9582 109.862 85.8417 109.676 85.6087C109.489 85.3757 109.396 85.0028 109.396 84.4902C109.396 83.9542 109.489 83.5814 109.676 83.3484C109.862 83.1387 110.165 83.0222 110.561 83.0222C110.981 83.0222 111.284 83.1387 111.447 83.3484C111.633 83.5814 111.726 83.9543 111.726 84.4669V84.4902Z" fill="#242E55"/>
<path d="M116.993 82.7425C116.806 82.4862 116.48 82.3697 116.014 82.3697H115.944C115.711 82.3697 115.501 82.4163 115.385 82.4862C115.245 82.5561 115.129 82.6726 115.012 82.8124C114.965 82.8823 114.919 82.9289 114.895 82.9522C114.849 82.9755 114.826 82.9988 114.779 82.9988C114.709 82.9988 114.662 82.9755 114.639 82.9289C114.593 82.859 114.569 82.7891 114.546 82.6726C114.523 82.5794 114.499 82.5095 114.476 82.4629C114.453 82.4163 114.429 82.393 114.36 82.393H113.8V86.564H114.569V84.1173C114.569 83.7445 114.639 83.4649 114.779 83.3018C114.942 83.1386 115.175 83.0454 115.525 83.0454H115.618C115.874 83.0454 116.037 83.0687 116.154 83.1386C116.27 83.2085 116.363 83.3018 116.41 83.4649C116.457 83.6047 116.48 83.8377 116.48 84.1173V86.564H117.249V83.7445C117.249 83.3251 117.156 82.9755 116.993 82.7425Z" fill="#242E55"/>
<path d="M121.63 82.6726C121.373 82.4629 120.954 82.3697 120.418 82.3697C119.952 82.3697 119.579 82.4396 119.299 82.5794C119.043 82.7192 118.857 82.9522 118.763 83.2551L119.509 83.4649C119.556 83.3018 119.649 83.1852 119.812 83.1153C119.952 83.0454 120.162 83.0221 120.418 83.0221C120.744 83.0221 120.954 83.0687 121.094 83.1619C121.233 83.2551 121.28 83.4183 121.28 83.628C121.28 83.8377 121.233 83.9775 121.094 84.0474C120.977 84.1406 120.744 84.1639 120.418 84.1639H120.045C119.556 84.1639 119.206 84.2571 118.973 84.4436C118.74 84.63 118.624 84.9096 118.624 85.3057V85.4921C118.624 85.8417 118.74 86.098 118.927 86.3077C119.136 86.5174 119.439 86.6106 119.859 86.6106H120.045C120.255 86.6106 120.418 86.564 120.534 86.4941C120.651 86.4242 120.767 86.331 120.861 86.2378C120.907 86.1679 120.954 86.1213 121 86.098C121.024 86.0747 121.07 86.0514 121.117 86.0514C121.164 86.0514 121.21 86.0747 121.233 86.1213C121.257 86.1679 121.28 86.2145 121.303 86.3077C121.327 86.3776 121.35 86.4475 121.373 86.4941C121.397 86.5407 121.443 86.564 121.513 86.564H122.026V83.6513C122.026 83.1852 121.886 82.859 121.63 82.6726ZM121.28 85.329C121.28 85.5387 121.233 85.7019 121.14 85.8184C121.024 85.9116 120.837 85.9815 120.581 85.9815H120.045C119.789 85.9815 119.602 85.9349 119.509 85.8417C119.416 85.7485 119.346 85.5853 119.346 85.3756C119.346 85.2125 119.369 85.096 119.416 85.0028C119.463 84.9329 119.556 84.863 119.672 84.8397C119.789 84.7931 119.952 84.7698 120.185 84.7465H120.395C120.558 84.7232 120.674 84.6766 120.767 84.63C120.837 84.5601 120.907 84.4902 120.977 84.3969C121.024 84.327 121.047 84.3037 121.07 84.2804C121.094 84.2804 121.14 84.2338 121.164 84.2338C121.257 84.2338 121.28 84.3037 121.28 84.4202V85.329Z" fill="#242E55"/>
<path d="M123.61 80.8551V86.564H124.379V80.8551H123.61Z" fill="#242E55"/>
<path d="M131.906 81.3211C131.603 81.0182 131.16 80.8551 130.554 80.8551H128.504V86.564H129.343V84.5135H130.554C131.16 84.5135 131.603 84.3504 131.906 84.0474C132.232 83.7445 132.372 83.2785 132.372 82.6726C132.372 82.0668 132.232 81.624 131.906 81.3211ZM131.277 83.5348C131.09 83.6979 130.834 83.7911 130.461 83.7911H129.343V81.5774H130.461C130.834 81.5774 131.09 81.6473 131.277 81.8337C131.44 81.9969 131.533 82.2765 131.533 82.6726C131.533 83.0688 131.44 83.3717 131.277 83.5348Z" fill="#242E55"/>
<path d="M136.45 82.6726C136.193 82.4629 135.774 82.3697 135.238 82.3697C134.749 82.3697 134.399 82.4396 134.119 82.5794C133.863 82.7192 133.677 82.9522 133.584 83.2551L134.329 83.4649C134.376 83.3018 134.469 83.1852 134.632 83.1153C134.772 83.0454 134.982 83.0221 135.238 83.0221C135.564 83.0221 135.774 83.0687 135.914 83.1619C136.03 83.2551 136.1 83.4183 136.1 83.628C136.1 83.8377 136.03 83.9775 135.914 84.0474C135.774 84.1406 135.564 84.1639 135.238 84.1639H134.865C134.376 84.1639 134.026 84.2571 133.793 84.4436C133.56 84.63 133.444 84.9096 133.444 85.3057V85.4921C133.444 85.8417 133.537 86.098 133.747 86.3077C133.956 86.5174 134.259 86.6106 134.679 86.6106H134.842C135.075 86.6106 135.238 86.564 135.354 86.4941C135.471 86.4242 135.564 86.331 135.657 86.2378C135.727 86.1679 135.774 86.1213 135.797 86.098C135.844 86.0747 135.89 86.0514 135.937 86.0514C135.984 86.0514 136.03 86.0747 136.054 86.1213C136.054 86.1679 136.1 86.2145 136.123 86.3077C136.147 86.3776 136.17 86.4475 136.193 86.4941C136.217 86.5407 136.263 86.564 136.31 86.564H136.846V83.6513C136.846 83.1852 136.706 82.859 136.45 82.6726ZM136.1 85.329C136.1 85.5387 136.054 85.7019 135.937 85.8184C135.844 85.9116 135.657 85.9815 135.401 85.9815H134.842C134.609 85.9815 134.422 85.9349 134.329 85.8417C134.213 85.7485 134.166 85.5853 134.166 85.3756C134.166 85.2125 134.166 85.096 134.236 85.0028C134.283 84.9329 134.376 84.863 134.492 84.8397C134.609 84.7931 134.772 84.7698 135.005 84.7465H135.215C135.378 84.7232 135.494 84.6766 135.564 84.63C135.657 84.5601 135.727 84.4902 135.797 84.3969C135.821 84.327 135.867 84.3037 135.89 84.2804C135.914 84.2804 135.937 84.2338 135.984 84.2338C136.054 84.2338 136.1 84.3037 136.1 84.4202V85.329Z" fill="#242E55"/>
<path d="M140.621 85.8184C140.457 85.9116 140.248 85.9815 139.991 85.9815C139.595 85.9815 139.292 85.865 139.106 85.6786C138.92 85.4689 138.826 85.1426 138.826 84.6766V84.2805C138.826 83.8144 138.92 83.4882 139.106 83.2785C139.292 83.0921 139.595 82.9989 139.991 82.9989C140.248 82.9989 140.457 83.0455 140.621 83.1387C140.76 83.2552 140.877 83.395 140.924 83.5581L141.599 83.395C141.553 83.0921 141.39 82.8358 141.087 82.6493C140.784 82.4629 140.434 82.3464 139.991 82.3464C139.316 82.3464 138.826 82.5328 138.523 82.9057C138.197 83.2552 138.057 83.7911 138.057 84.4902C138.057 85.1892 138.197 85.7019 138.523 86.0747C138.826 86.4243 139.316 86.6107 139.991 86.6107C140.434 86.6107 140.784 86.5175 141.087 86.331C141.39 86.1213 141.553 85.8883 141.599 85.5621L140.924 85.399C140.877 85.5854 140.76 85.7252 140.621 85.8184Z" fill="#242E55"/>
<path d="M144.862 84.8863C144.862 84.8863 144.768 84.7931 144.722 84.7698C144.675 84.7232 144.629 84.6999 144.605 84.6999C144.535 84.6533 144.465 84.6067 144.442 84.5601C144.396 84.5601 144.396 84.4669 144.396 84.397C144.396 84.3271 144.396 84.2805 144.442 84.2339C144.489 84.1872 144.535 84.1406 144.605 84.094C144.629 84.094 144.675 84.0707 144.722 84.0241C144.768 84.0008 144.815 83.9542 144.862 83.9076L146.236 82.393H145.234L143.51 84.3737V80.8551H142.741V86.564H143.51V84.4203L145.374 86.564H146.376L144.862 84.8863Z" fill="#242E55"/>
<path d="M150.105 82.6726C149.848 82.4629 149.452 82.3697 148.893 82.3697C148.427 82.3697 148.054 82.4396 147.798 82.5794C147.518 82.7192 147.355 82.9522 147.262 83.2551L148.007 83.4649C148.054 83.3018 148.147 83.1852 148.287 83.1153C148.427 83.0454 148.637 83.0221 148.916 83.0221C149.219 83.0221 149.452 83.0687 149.569 83.1619C149.708 83.2551 149.778 83.4183 149.778 83.628C149.778 83.8377 149.708 83.9775 149.592 84.0474C149.452 84.1406 149.219 84.1639 148.893 84.1639H148.543C148.054 84.1639 147.681 84.2571 147.471 84.4436C147.238 84.63 147.122 84.9096 147.122 85.3057V85.4921C147.122 85.8417 147.215 86.098 147.425 86.3077C147.635 86.5174 147.938 86.6106 148.334 86.6106H148.52C148.73 86.6106 148.893 86.564 149.009 86.4941C149.126 86.4242 149.242 86.331 149.336 86.2378C149.406 86.1679 149.452 86.1213 149.475 86.098C149.522 86.0747 149.545 86.0514 149.592 86.0514C149.662 86.0514 149.708 86.0747 149.732 86.1213C149.755 86.1679 149.778 86.2145 149.802 86.3077C149.802 86.3776 149.825 86.4475 149.848 86.4941C149.872 86.5407 149.918 86.564 149.988 86.564H150.501V83.6513C150.501 83.1852 150.384 82.859 150.105 82.6726ZM149.778 85.329C149.778 85.5387 149.708 85.7019 149.615 85.8184C149.522 85.9116 149.336 85.9815 149.056 85.9815H148.52C148.264 85.9815 148.101 85.9349 147.984 85.8417C147.891 85.7485 147.844 85.5853 147.844 85.3756C147.844 85.2125 147.868 85.096 147.914 85.0028C147.961 84.9329 148.031 84.863 148.147 84.8397C148.264 84.7931 148.45 84.7698 148.66 84.7465H148.87C149.033 84.7232 149.173 84.6766 149.242 84.63C149.312 84.5601 149.406 84.4902 149.452 84.3969C149.499 84.327 149.522 84.3037 149.545 84.2804C149.592 84.2804 149.615 84.2338 149.662 84.2338C149.732 84.2338 149.778 84.3037 149.778 84.4202V85.329Z" fill="#242E55"/>
<path d="M154.858 82.393C154.858 82.393 154.788 82.4396 154.765 82.4862C154.765 82.5095 154.719 82.5794 154.695 82.6493C154.649 82.7658 154.625 82.859 154.579 82.9056C154.532 82.9755 154.486 82.9988 154.416 82.9988C154.369 82.9988 154.322 82.9755 154.276 82.9522C154.229 82.9056 154.183 82.859 154.136 82.7891C154.02 82.6493 153.926 82.5561 153.81 82.4862C153.717 82.393 153.553 82.3697 153.344 82.3697H153.157C152.715 82.393 152.365 82.5561 152.109 82.859C151.852 83.2085 151.713 83.6979 151.713 84.327C151.713 84.7232 151.783 85.0727 151.922 85.3523C152.016 85.562 152.132 85.7485 152.272 85.865C152.318 85.9349 152.388 86.0048 152.458 86.0514C152.691 86.2145 152.948 86.2844 153.227 86.2844H153.484C153.693 86.2844 153.856 86.2378 153.973 86.1679C154.066 86.0747 154.183 85.9582 154.276 85.8184C154.322 85.7485 154.346 85.6785 154.392 85.6552C154.439 85.6086 154.462 85.6086 154.509 85.6086C154.579 85.6086 154.625 85.6319 154.649 85.6785C154.672 85.7252 154.672 85.7951 154.672 85.8883V86.4708C154.672 86.7737 154.602 87.0301 154.439 87.1932C154.276 87.3563 154.02 87.4262 153.693 87.4262H153.6C153.297 87.4262 153.087 87.3796 152.924 87.3097C152.785 87.2398 152.715 87.1233 152.668 86.9369L151.946 87.1C151.969 87.4029 152.155 87.6359 152.458 87.799C152.761 87.9621 153.134 88.032 153.577 88.032H153.647C154.229 88.032 154.672 87.8922 154.975 87.5893C155.278 87.3097 155.418 86.8669 155.418 86.3077V82.393H154.858ZM154.649 84.7931C154.649 85.096 154.579 85.3057 154.439 85.4455C154.322 85.562 154.089 85.6319 153.787 85.6319H153.53C153.157 85.6319 152.901 85.5387 152.738 85.329C152.645 85.1892 152.575 85.0261 152.528 84.7931C152.505 84.6533 152.482 84.5135 152.482 84.327C152.482 83.861 152.575 83.5348 152.738 83.3251C152.785 83.2551 152.854 83.1852 152.948 83.1619C153.087 83.0687 153.297 83.0221 153.53 83.0221H153.787C154.089 83.0221 154.322 83.0687 154.439 83.2085C154.579 83.3251 154.649 83.5581 154.649 83.861V84.7931Z" fill="#242E55"/>
<path d="M157.002 82.5561V86.564H157.794V82.5561H157.002ZM156.909 80.8551V81.7638H157.888V80.8551H156.909Z" fill="#242E55"/>
<path d="M162.571 82.7425C162.408 82.4862 162.082 82.3697 161.616 82.3697H161.546C161.289 82.3697 161.103 82.4163 160.986 82.4862C160.847 82.5561 160.73 82.6726 160.614 82.8124C160.567 82.8823 160.52 82.9289 160.497 82.9522C160.451 82.9755 160.404 82.9988 160.357 82.9988C160.287 82.9988 160.241 82.9755 160.218 82.9289C160.194 82.859 160.171 82.7891 160.148 82.6726C160.124 82.5794 160.101 82.5095 160.078 82.4629C160.054 82.4163 160.008 82.393 159.961 82.393H159.379V86.564H160.148V84.1173C160.148 83.7445 160.241 83.4649 160.381 83.3018C160.52 83.1386 160.777 83.0454 161.126 83.0454H161.22C161.453 83.0454 161.639 83.0687 161.755 83.1386C161.872 83.2085 161.965 83.3018 162.012 83.4649C162.035 83.6047 162.058 83.8377 162.058 84.1173V86.564H162.827V83.7445C162.827 83.3251 162.757 82.9755 162.571 82.7425Z" fill="#242E55"/>
<path d="M167.185 82.393C167.185 82.393 167.115 82.4396 167.092 82.4862C167.068 82.5095 167.045 82.5794 166.998 82.6493C166.998 82.7658 166.929 82.859 166.882 82.9056C166.835 82.9755 166.789 82.9988 166.719 82.9988C166.672 82.9988 166.626 82.9755 166.579 82.9522C166.532 82.9056 166.486 82.859 166.439 82.7891C166.346 82.6493 166.229 82.5561 166.113 82.4862C166.02 82.393 165.857 82.3697 165.647 82.3697H165.53C165.064 82.3697 164.692 82.5328 164.435 82.859C164.156 83.2085 164.039 83.6979 164.039 84.327C164.039 84.7232 164.086 85.0727 164.225 85.3523C164.365 85.6552 164.552 85.8883 164.785 86.0514C164.994 86.2145 165.251 86.2844 165.554 86.2844H165.787C165.996 86.2844 166.16 86.2378 166.276 86.1679C166.393 86.0747 166.486 85.9582 166.579 85.8184C166.626 85.7485 166.672 85.6785 166.695 85.6552C166.742 85.6086 166.789 85.6086 166.835 85.6086C166.882 85.6086 166.928 85.6319 166.952 85.6785C166.975 85.7252 166.998 85.7951 166.998 85.8883V86.4708C166.998 86.7737 166.905 87.0301 166.742 87.1932C166.579 87.3563 166.323 87.4262 165.996 87.4262H165.903C165.6 87.4262 165.391 87.3796 165.251 87.3097C165.111 87.2398 165.018 87.1233 164.971 86.9369L164.249 87.1C164.295 87.4029 164.458 87.6359 164.761 87.799C165.088 87.9621 165.437 88.032 165.88 88.032H165.95C166.532 88.032 166.975 87.8922 167.278 87.5893C167.581 87.3097 167.721 86.8669 167.721 86.3077V82.393H167.185ZM166.975 84.7931C166.975 85.096 166.905 85.3057 166.765 85.4455C166.626 85.562 166.393 85.6319 166.09 85.6319H165.833C165.46 85.6319 165.204 85.5387 165.041 85.329C164.878 85.096 164.808 84.7698 164.808 84.327C164.808 83.861 164.878 83.5348 165.041 83.3251C165.204 83.1153 165.46 83.0221 165.833 83.0221H166.09C166.393 83.0221 166.626 83.0687 166.765 83.2085C166.905 83.3251 166.975 83.5581 166.975 83.861V84.7931Z" fill="#242E55"/>
<path d="M175.014 83.9309C174.781 83.6513 174.432 83.4649 173.989 83.3717L172.94 83.0921C172.684 83.0455 172.521 82.9523 172.404 82.8357C172.288 82.7192 172.218 82.5328 172.218 82.2998C172.218 82.0435 172.311 81.8338 172.498 81.694C172.707 81.5541 172.964 81.4609 173.337 81.4609C173.686 81.4609 173.942 81.5308 174.106 81.6473C174.269 81.7872 174.362 81.9503 174.385 82.2066L175.177 82.0668C175.177 81.6473 174.968 81.3444 174.665 81.1114C174.362 80.8784 173.919 80.7852 173.36 80.7852C172.754 80.7852 172.265 80.9017 171.938 81.1813C171.589 81.4609 171.426 81.8571 171.426 82.3464C171.426 82.7658 171.519 83.0921 171.752 83.3251C171.962 83.5581 172.311 83.7445 172.801 83.861L173.779 84.1173C174.036 84.1873 174.245 84.2805 174.362 84.4203C174.502 84.5601 174.548 84.7465 174.548 84.9795C174.548 85.2824 174.455 85.5388 174.269 85.7019C174.106 85.865 173.803 85.9582 173.36 85.9582C172.544 85.9582 172.125 85.632 172.102 85.0028L171.286 85.1426C171.379 86.1446 172.078 86.6573 173.383 86.6573C173.826 86.6573 174.199 86.564 174.478 86.4242C174.781 86.2611 174.991 86.0747 175.131 85.8184C175.271 85.5621 175.341 85.2591 175.341 84.9562C175.341 84.5135 175.224 84.1873 175.014 83.9309Z" fill="#242E55"/>
<path d="M179.605 82.9057C179.255 82.5328 178.789 82.3464 178.16 82.3464C177.531 82.3464 177.088 82.5328 176.739 82.9057C176.389 83.2785 176.226 83.8144 176.226 84.4902C176.226 85.1659 176.389 85.6786 176.739 86.0514C177.088 86.4243 177.554 86.6107 178.16 86.6107C178.766 86.6107 179.255 86.4243 179.605 86.0514C179.954 85.6786 180.117 85.1659 180.117 84.4902C180.117 83.8144 179.954 83.2785 179.605 82.9057ZM179.348 84.4902C179.348 85.0028 179.255 85.3757 179.069 85.6087C178.882 85.8417 178.579 85.9582 178.16 85.9582C177.764 85.9582 177.461 85.8417 177.275 85.6087C177.088 85.3757 176.995 85.0028 176.995 84.4902C176.995 83.9542 177.088 83.5814 177.275 83.3484C177.461 83.1387 177.764 83.0222 178.16 83.0222C178.579 83.0222 178.882 83.1387 179.069 83.3484C179.255 83.5814 179.348 83.9543 179.348 84.4669V84.4902Z" fill="#242E55"/>
<path d="M181.446 80.8551V86.564H182.238V80.8551H181.446Z" fill="#242E55"/>
<path d="M186.502 82.393V84.8397C186.502 85.2358 186.432 85.4922 186.269 85.6786C186.129 85.8417 185.896 85.9116 185.547 85.9116H185.454C185.197 85.9116 185.011 85.8883 184.894 85.8184C184.778 85.7718 184.708 85.6553 184.661 85.5155C184.615 85.3523 184.591 85.1426 184.591 84.8397V82.393H183.822V85.2358C183.822 85.6553 183.916 85.9815 184.079 86.2378C184.265 86.4708 184.568 86.6106 185.034 86.6106H185.127C185.36 86.6106 185.547 86.564 185.687 86.4708C185.803 86.4009 185.92 86.2844 186.036 86.1446C186.106 86.0747 186.129 86.0281 186.176 86.0048C186.199 85.9815 186.246 85.9582 186.292 85.9582C186.362 85.9582 186.409 86.0048 186.432 86.0514C186.456 86.098 186.479 86.1912 186.525 86.2844C186.525 86.3776 186.549 86.4475 186.572 86.4941C186.595 86.5407 186.642 86.564 186.689 86.564H187.271V82.393H186.502Z" fill="#242E55"/>
<path d="M191.163 83.0455V82.393H189.881V81.1813H189.462C189.462 81.1813 189.322 81.2279 189.275 81.3212C189.252 81.4144 189.229 81.5309 189.205 81.7173C189.182 81.927 189.159 82.1134 189.112 82.2299C189.042 82.3464 188.949 82.393 188.809 82.393H188.32V83.0455H189.112V85.4456C189.112 85.7951 189.182 86.0747 189.368 86.2844C189.532 86.4709 189.811 86.5641 190.207 86.5641H191.163V85.9349H190.417C190.207 85.9349 190.067 85.8883 189.998 85.7951C189.928 85.7252 189.881 85.5621 189.881 85.3291V83.0455H191.163Z" fill="#242E55"/>
<path d="M192.444 82.5561V86.564H193.213V82.5561H192.444ZM192.351 80.8551V81.7638H193.306V80.8551H192.351Z" fill="#242E55"/>
<path d="M197.897 82.9057C197.547 82.5328 197.058 82.3464 196.452 82.3464C195.846 82.3464 195.38 82.5328 195.031 82.9057C194.681 83.2785 194.518 83.8144 194.518 84.4902C194.518 85.1659 194.681 85.6786 195.031 86.0514C195.38 86.4243 195.846 86.6107 196.452 86.6107C197.058 86.6107 197.547 86.4243 197.897 86.0514C198.246 85.6786 198.41 85.1659 198.41 84.4902C198.41 83.8144 198.246 83.2785 197.897 82.9057ZM197.617 84.4902C197.617 85.0028 197.547 85.3757 197.361 85.6087C197.175 85.8417 196.872 85.9582 196.452 85.9582C196.056 85.9582 195.753 85.8417 195.567 85.6087C195.38 85.3757 195.287 85.0028 195.287 84.4902C195.287 83.9542 195.38 83.5814 195.567 83.3484C195.753 83.1387 196.056 83.0222 196.452 83.0222C196.872 83.0222 197.175 83.1387 197.361 83.3484C197.547 83.5814 197.617 83.9543 197.617 84.4669V84.4902Z" fill="#242E55"/>
<path d="M202.907 82.7425C202.72 82.4862 202.394 82.3697 201.951 82.3697H201.858C201.625 82.3697 201.439 82.4163 201.299 82.4862C201.159 82.5561 201.043 82.6726 200.926 82.8124C200.88 82.8823 200.833 82.9289 200.81 82.9522C200.786 82.9755 200.74 82.9988 200.693 82.9988C200.623 82.9988 200.577 82.9755 200.553 82.9289C200.507 82.859 200.483 82.7891 200.46 82.6726C200.437 82.5794 200.414 82.5095 200.39 82.4629C200.367 82.4163 200.344 82.393 200.297 82.393H199.714V86.564H200.483V84.1173C200.483 83.7445 200.553 83.4649 200.693 83.3018C200.856 83.1386 201.089 83.0454 201.439 83.0454H201.532C201.788 83.0454 201.951 83.0687 202.091 83.1386C202.208 83.2085 202.278 83.3018 202.324 83.4649C202.371 83.6047 202.394 83.8377 202.394 84.1173V86.564H203.163V83.7445C203.163 83.3251 203.07 82.9755 202.907 82.7425Z" fill="#242E55"/>
<path d="M207.451 84.6067C207.287 84.4203 207.008 84.2805 206.658 84.2106L205.633 84.0009C205.447 83.9776 205.33 83.9076 205.237 83.8377C205.167 83.7678 205.144 83.6746 205.144 83.5348C205.144 83.162 205.423 82.9989 206.006 82.9989C206.332 82.9989 206.565 83.0455 206.705 83.1387C206.868 83.2319 206.961 83.3717 206.985 83.5581L207.684 83.395C207.637 83.0688 207.474 82.8125 207.194 82.626C206.891 82.4396 206.518 82.3464 206.029 82.3464C205.54 82.3464 205.12 82.4629 204.841 82.6726C204.561 82.8824 204.421 83.1853 204.421 83.5814C204.421 83.861 204.515 84.0941 204.678 84.2805C204.841 84.4436 205.12 84.5601 205.47 84.63L206.495 84.8397C206.682 84.8397 206.821 84.9329 206.891 85.0261C206.985 85.1194 207.031 85.2359 207.031 85.399C207.031 85.6087 206.961 85.7485 206.821 85.8417C206.682 85.9349 206.449 85.9815 206.122 85.9815C205.796 85.9815 205.54 85.9116 205.353 85.8184C205.19 85.7019 205.074 85.5388 205.027 85.3291L204.281 85.5155C204.328 85.8417 204.515 86.098 204.841 86.3077C205.144 86.4942 205.563 86.6107 206.099 86.6107C206.635 86.6107 207.054 86.4942 207.334 86.2611C207.59 86.0281 207.73 85.7252 207.73 85.3524C207.73 85.0494 207.637 84.7931 207.451 84.6067Z" fill="#242E55"/>
<path d="M92.0129 61.3747C91.0109 60.2329 89.4963 59.4173 87.5156 58.928L82.9018 57.7629C81.8766 57.5299 81.0843 57.1337 80.5717 56.5978C80.059 56.0618 79.7794 55.3162 79.7794 54.3142C79.7794 53.1724 80.1988 52.2636 81.0377 51.6112C81.8766 50.9587 83.0883 50.6325 84.6961 50.6325C86.3039 50.6325 87.3758 50.8888 88.0982 51.4248C88.8205 51.984 89.1934 52.7763 89.24 53.8482L92.8052 53.2423C92.6187 51.4248 91.8498 50.0266 90.4983 49.048C89.1468 48.0693 87.236 47.5799 84.8126 47.5799C82.1096 47.5799 80.0357 48.1625 78.5444 49.3742C77.0531 50.5626 76.3074 52.2869 76.3074 54.5239C76.3074 56.3182 76.7734 57.7396 77.6822 58.7882C78.6143 59.8367 80.1755 60.629 82.3659 61.165L86.6768 62.2368C87.7952 62.5398 88.6341 62.9825 89.1934 63.5884C89.7526 64.1942 90.0322 64.9865 90.0322 65.9651C90.0322 67.3633 89.6128 68.4351 88.8205 69.1808C88.0283 69.9032 86.6768 70.276 84.8126 70.276C81.2474 70.276 79.4066 68.9012 79.29 66.1516L75.7249 66.7574C76.121 71.1382 79.1735 73.3285 84.9058 73.3285C86.8399 73.3285 88.471 73.0023 89.7526 72.3266C91.0575 71.6508 92.0129 70.7653 92.6187 69.6468C93.2246 68.5284 93.5275 67.2701 93.5275 65.8719C93.5275 64.0078 93.0382 62.5165 92.0362 61.3747H92.0129Z" fill="#242E55"/>
<path d="M114.965 51.0286V47.8829H99.5859V73.0023H114.965V69.8566H103.244V61.5378H113.59V58.392H103.244V51.0519H114.965V51.0286Z" fill="#242E55"/>
<path d="M139.129 47.8829V71.511L128.76 47.8829H122.422V73.0023H125.987V49.3742L136.356 73.0023H142.695V47.8829H139.129Z" fill="#242E55"/>
<path d="M148.59 47.8829V51.0286H156.116V72.979H159.775V51.0286H167.278V47.8829H148.567H148.59Z" fill="#242E55"/>
<path d="M188.599 51.0286V47.8829H173.243V73.0023H188.599V69.8566H176.902V61.5378H187.248V58.392H176.902V51.0519H188.599V51.0286Z" fill="#242E55"/>
<path d="M193.423 47.8829V51.0286H200.949V72.979H204.608V51.0286H212.134V47.8829H193.399H193.423Z" fill="#242E55"/>
<path d="M219.777 54.6404C218.705 55.2696 218.076 56.388 218.076 57.5997V72.979H221.734V53.5219L219.777 54.6404Z" fill="#242E55"/>
<path d="M240.889 62.8893C240.632 62.5631 240.329 62.3068 240.003 62.1203C239.677 61.9106 239.467 61.7941 239.397 61.7475C238.931 61.4446 238.582 61.1883 238.372 60.9319C238.162 60.6989 238.046 60.3727 238.046 59.9766C238.046 59.5571 238.162 59.2542 238.372 58.9979C238.582 58.7649 238.931 58.5085 239.397 58.2056C239.467 58.159 239.677 58.0425 240.003 57.8328C240.329 57.6464 240.632 57.3667 240.889 57.0638L249.184 47.9295H244.407L233.945 59.8834V47.8829H230.286V73.0023H233.945V60.0698L245.246 73.0023H250L240.889 62.8893Z" fill="#242E55"/>
<path d="M218.053 53.0559V47.8829H221.711V50.1432C221.711 50.6325 221.455 51.0985 221.012 51.3316L218.029 53.0559H218.053Z" fill="#242E55"/>
<path d="M30.3794 10.8794C30.3794 10.8794 25.5792 8.66574 20.8722 9.06187C16.1652 9.45801 11.6447 12.3707 11.6447 12.3707L12.0874 17.6603C12.0874 17.6603 16.8876 15.167 21.2916 14.7941C25.6957 14.4213 30.8454 16.099 30.8454 16.099L30.4027 10.9027L30.3794 10.8794Z" fill="#242E55"/>
<path d="M6.47174 14.9106C6.47174 14.9106 6.54165 14.8174 6.51835 14.7708L6.26203 11.6484L4.60759 10.926C4.49108 10.8794 4.46778 10.693 4.58429 10.6231L20.3597 0.0207128C20.3597 0.0207128 20.4762 -0.025891 20.5228 0.0207128L37.0671 7.78025C37.207 7.85015 37.207 8.01327 37.0671 8.08317L31.731 11.0891C31.731 11.0891 31.4747 11.0891 31.4747 10.9493L31.4281 10.4134C31.4281 10.4134 31.3815 10.2969 31.3349 10.2736C30.6125 9.94732 25.6725 7.89676 20.8024 8.29289C15.9323 8.68902 11.2952 11.5086 10.5962 11.928C10.5496 11.9513 10.503 12.0212 10.5263 12.0911L10.6195 13.2795C10.6195 13.4193 10.503 13.5125 10.3865 13.4659L7.40382 12.161C7.28731 12.1144 7.1475 12.2076 7.1708 12.3474L7.35722 14.7242C7.35722 14.7242 7.40382 14.8174 7.45042 14.864C7.63684 14.9805 7.77665 15.1903 7.79995 15.4466L7.93976 17.2641C7.93976 17.4738 7.89316 17.6836 7.75335 17.8234C7.73005 17.87 7.70674 17.9166 7.70674 17.9632L8.28929 21.808C8.28929 21.808 8.24269 21.9944 8.12618 22.0177L7.00769 22.1109C7.00769 22.1109 6.82127 22.041 6.82127 21.9478L6.77467 18.0564C6.77467 18.0564 6.75137 17.9632 6.70476 17.9166C6.54165 17.8001 6.44844 17.5903 6.42514 17.3806L6.28533 15.5631C6.28533 15.3301 6.35523 15.097 6.51835 14.9572L6.47174 14.9106Z" fill="#242E55"/>
</svg>
